<?xml version="1.0" encoding="utf-8"?>
<!-- Generator: Adobe Illustrator 16.0.0, SVG Export Plug-In . SVG Version: 6.00 Build 0)  -->
<!DOCTYPE svg PUBLIC "-//W3C//DTD SVG 1.1//EN" "http://www.w3.org/Graphics/SVG/1.1/DTD/svg11.dtd">
<svg version="1.1" id="Capa_1" xmlns="http://www.w3.org/2000/svg" xmlns:xlink="http://www.w3.org/1999/xlink" x="0px" y="0px"
	 width="150px" height="150px" viewBox="0 0 150 150" enable-background="new 0 0 150 150" xml:space="preserve">
<g>
	<g>
		<g>
			<g>
				<path fill="#000388" d="M45.426,72.29c-4.38,0-7.812-5.229-7.812-11.906c0-6.676,3.432-11.904,7.812-11.904
					s7.812,5.228,7.812,11.904C53.238,67.06,49.806,72.29,45.426,72.29z M45.426,52.161c-1.95,0-4.13,3.517-4.13,8.223
					c0,4.707,2.181,8.223,4.13,8.223c1.949,0,4.13-3.516,4.13-8.223C49.556,55.678,47.375,52.161,45.426,52.161z"/>
			</g>
			<g>
				<path fill="#000388" d="M105.133,72.29c-4.381,0-7.812-5.229-7.812-11.906c0-6.676,3.431-11.904,7.812-11.904
					c4.38,0,7.813,5.228,7.813,11.904C112.945,67.06,109.513,72.29,105.133,72.29z M105.133,52.161
					c-1.949,0-4.129,3.517-4.129,8.223c0,4.707,2.18,8.223,4.129,8.223c1.95,0,4.13-3.516,4.13-8.223
					C109.263,55.678,107.083,52.161,105.133,52.161z"/>
			</g>
		</g>
		<g>
			<path fill="#000388" d="M75.558,111.073c-12.246,0-23.382-6.482-28.369-16.514c-1.418-2.854-1.265-6.172,0.412-8.881
				c1.672-2.697,4.565-4.309,7.74-4.309h40.436c3.174,0,6.068,1.611,7.739,4.309c1.678,2.709,1.831,6.027,0.413,8.881
				C98.938,104.591,87.803,111.073,75.558,111.073z M55.34,85.052c-1.891,0-3.614,0.961-4.609,2.568
				c-1.001,1.613-1.093,3.594-0.246,5.299c4.371,8.791,14.212,14.471,25.072,14.471c10.859,0,20.701-5.68,25.072-14.471
				c0.849-1.705,0.756-3.686-0.245-5.299c-0.995-1.607-2.718-2.568-4.609-2.568H55.34z"/>
		</g>
	</g>
	<g>
		<path fill="#000388" d="M75.278,138.228c-34.863,0-63.227-28.363-63.227-63.229c0-34.863,28.364-63.227,63.227-63.227
			c34.865,0,63.229,28.364,63.229,63.227C138.507,109.864,110.144,138.228,75.278,138.228z M75.278,15.454
			c-32.833,0-59.545,26.712-59.545,59.545c0,32.836,26.712,59.547,59.545,59.547c32.835,0,59.546-26.711,59.546-59.547
			C134.824,42.166,108.113,15.454,75.278,15.454z"/>
	</g>
</g>
</svg>
